<svg preserveAspectRatio="none" width="100%" height="100%" overflow="visible" style="display: block;" viewBox="0 0 80 80" fill="none" xmlns="http://www.w3.org/2000/svg">
<g id="arrow-big-down-dash 1">
<path id="Vector" d="M50 36.6667C50 37.5507 50.3512 38.3986 50.9763 39.0237C51.6014 39.6488 52.4493 40 53.3333 40H63.13C63.8849 39.8527 64.6675 39.971 65.3451 40.3348C66.0228 40.6987 66.5537 41.2856 66.848 41.9962C67.1423 42.7068 67.1818 43.4973 66.9598 44.2337C66.7378 44.9701 66.268 45.6071 65.63 46.0367L42.8467 68.8233C42.4731 69.197 42.0295 69.4933 41.5414 69.6955C41.0532 69.8977 40.53 70.0018 40.0017 70.0018C39.4733 70.0018 38.9501 69.8977 38.462 69.6955C37.9738 69.4933 37.5303 69.197 37.1567 68.8233L14.3667 46.0333C13.7287 45.6038 13.2588 44.9668 13.0368 44.2304C12.8149 43.494 12.8543 42.7035 13.1486 41.9929C13.4429 41.2823 13.9739 40.6953 14.6515 40.3315C15.3292 39.9677 16.1118 39.8494 16.8667 39.9967H26.6667C27.5507 39.9967 28.3986 39.6455 29.0237 39.0204C29.6488 38.3952 30 37.5474 30 36.6633V30C30 29.1159 30.3512 28.2681 30.9763 27.643C31.6014 27.0179 32.4493 26.6667 33.3333 26.6667H46.6667C47.5507 26.6667 48.3986 27.0179 49.0237 27.643C49.6488 28.2681 50 29.1159 50 30V36.6667Z" stroke="var(--stroke-0, #1A202C)" stroke-width="4" stroke-linecap="round" stroke-linejoin="round"/>
<path id="Vector_2" d="M30 13.3333H50" stroke="var(--stroke-0, #1A202C)" stroke-width="4" stroke-linecap="round" stroke-linejoin="round"/>
</g>
</svg>
