<svg preserveAspectRatio="none" width="100%" height="100%" overflow="visible" style="display: block;" viewBox="0 0 60 60" fill="none" xmlns="http://www.w3.org/2000/svg">
<g id="star 1">
<path id="Vector" d="M28.8125 5.7375C28.9221 5.51615 29.0913 5.32983 29.3011 5.19956C29.511 5.0693 29.753 5.00027 30 5.00027C30.247 5.00027 30.489 5.0693 30.6989 5.19956C30.9087 5.32983 31.0779 5.51615 31.1875 5.7375L36.9625 17.435C37.3429 18.2049 37.9045 18.871 38.5991 19.3761C39.2936 19.8812 40.1003 20.2103 40.95 20.335L53.865 22.225C54.1097 22.2605 54.3396 22.3637 54.5287 22.523C54.7178 22.6823 54.8586 22.8914 54.935 23.1265C55.0115 23.3617 55.0207 23.6135 54.9615 23.8536C54.9023 24.0937 54.777 24.3124 54.6 24.485L45.26 33.58C44.644 34.1803 44.1832 34.9212 43.9171 35.7391C43.651 36.5569 43.5877 37.4272 43.7325 38.275L45.9375 51.125C45.9807 51.3696 45.9543 51.6214 45.8612 51.8517C45.7682 52.082 45.6123 52.2815 45.4114 52.4275C45.2104 52.5735 44.9724 52.66 44.7247 52.6772C44.4769 52.6945 44.2292 52.6417 44.01 52.525L32.465 46.455C31.7043 46.0556 30.858 45.8469 29.9988 45.8469C29.1396 45.8469 28.2932 46.0556 27.5325 46.455L15.99 52.525C15.7708 52.641 15.5235 52.6932 15.2761 52.6756C15.0288 52.6581 14.7913 52.5714 14.5907 52.4255C14.3902 52.2797 14.2346 52.0805 14.1416 51.8506C14.0487 51.6206 14.0221 51.3693 14.065 51.125L16.2675 38.2775C16.413 37.4293 16.35 36.5585 16.0838 35.7401C15.8177 34.9217 15.3565 34.1804 14.74 33.58L5.4 24.4875C5.22148 24.3151 5.09498 24.096 5.03491 23.8552C4.97483 23.6144 4.98359 23.3615 5.0602 23.1255C5.1368 22.8894 5.27817 22.6796 5.46819 22.52C5.65822 22.3603 5.88926 22.2572 6.135 22.2225L19.0475 20.335C19.8981 20.2112 20.706 19.8826 21.4015 19.3775C22.0969 18.8723 22.6593 18.2057 23.04 17.435L28.8125 5.7375Z" stroke="var(--stroke-0, #1A202C)" stroke-width="4" stroke-linecap="round" stroke-linejoin="round"/>
</g>
</svg>
