<svg preserveAspectRatio="none" width="100%" height="100%" overflow="visible" style="display: block;" viewBox="0 0 60 60" fill="none" xmlns="http://www.w3.org/2000/svg">
<g id="megaphone 1">
<path id="Vector" d="M27.5 15C35.1034 15.1959 42.5348 12.7188 48.5 8C48.8714 7.72143 49.3131 7.5518 49.7755 7.5101C50.2379 7.46841 50.7028 7.5563 51.118 7.76393C51.5333 7.97156 51.8825 8.29073 52.1266 8.68567C52.3707 9.08061 52.5 9.53572 52.5 10V40C52.5 40.4643 52.3707 40.9194 52.1266 41.3143C51.8825 41.7093 51.5333 42.0284 51.118 42.2361C50.7028 42.4437 50.2379 42.5316 49.7755 42.4899C49.3131 42.4482 48.8714 42.2786 48.5 42C42.5348 37.2812 35.1034 34.8041 27.5 35H12.5C11.1739 35 9.90215 34.4732 8.96447 33.5355C8.02678 32.5979 7.5 31.3261 7.5 30V20C7.5 18.6739 8.02678 17.4021 8.96447 16.4645C9.90215 15.5268 11.1739 15 12.5 15H27.5Z" stroke="var(--stroke-0, #1A202C)" stroke-width="4" stroke-linecap="round" stroke-linejoin="round"/>
<path id="Vector_2" d="M15 35C15 41.4911 17.1053 47.8071 21 53C21.7956 54.0609 22.9801 54.7622 24.2929 54.9497C25.6056 55.1373 26.9391 54.7957 28 54C29.0609 53.2044 29.7622 52.0199 29.9497 50.7071C30.1373 49.3944 29.7957 48.0609 29 47C26.4036 43.5381 25 39.3274 25 35" stroke="var(--stroke-0, #1A202C)" stroke-width="4" stroke-linecap="round" stroke-linejoin="round"/>
<path id="Vector_3" d="M20 15V35" stroke="var(--stroke-0, #1A202C)" stroke-width="4" stroke-linecap="round" stroke-linejoin="round"/>
</g>
</svg>
