<svg preserveAspectRatio="none" width="100%" height="100%" overflow="visible" style="display: block;" viewBox="0 0 120 120" fill="none" xmlns="http://www.w3.org/2000/svg">
<g id="book-alert 1">
<path id="Vector" d="M60 65H60.05" stroke="var(--stroke-0, #1A202C)" stroke-width="6" stroke-linecap="round" stroke-linejoin="round"/>
<path id="Vector_2" d="M60 30V45" stroke="var(--stroke-0, #1A202C)" stroke-width="6" stroke-linecap="round" stroke-linejoin="round"/>
<path id="Vector_3" d="M20 97.5V22.5C20 19.1848 21.317 16.0054 23.6612 13.6612C26.0054 11.317 29.1848 10 32.5 10H95C96.3261 10 97.5979 10.5268 98.5355 11.4645C99.4732 12.4021 100 13.6739 100 15V105C100 106.326 99.4732 107.598 98.5355 108.536C97.5979 109.473 96.3261 110 95 110H32.5C29.1848 110 26.0054 108.683 23.6612 106.339C21.317 103.995 20 100.815 20 97.5ZM20 97.5C20 94.1848 21.317 91.0054 23.6612 88.6612C26.0054 86.317 29.1848 85 32.5 85H100" stroke="var(--stroke-0, #1A202C)" stroke-width="6" stroke-linecap="round" stroke-linejoin="round"/>
</g>
</svg>
